<svg version="1.1" preserveAspectRatio="none" xmlns="http://www.w3.org/2000/svg" width="500" height="500" viewBox="0 0 500 500"><rect width="100%" height="100%" fill="#F2F2F2" fill-opacity="1"/><svg viewBox="97.0057 214.6443 335.1291 261.2825" width="333" height="259.6225529206506" x="83.5px" y="120.1887px" xmlns="http://www.w3.org/2000/svg" xmlns:xlink="http://www.w3.org/1999/xlink" preserveAspectRatio="none"><defs></defs><style>.companyName {fill:#1E1E1E;fill-opacity:1;}.icon1 {fill:#F56E56;fill-opacity:1;}.icon2 {fill:#1E1E1E;fill-opacity:1;}.icon3 {fill:#D0D0D0;fill-opacity:1;}.icon3-str {stroke:#D0D0D0;stroke-opacity:1;}.text {fill:#1e1e1e;fill-opacity:1;}</style><g opacity="1" transform="rotate(0 148.8268 455.9268)">
<svg width="231.4869" height="20" x="148.8268" y="455.9268" version="1.1" preserveAspectRatio="none" viewBox="4.56 -29.68 435.6 37.64">
  <g transform="matrix(1 0 0 1 0 0)" class="text"><path id="id-6izo4zJp21" d="M7.52-2.56L24.36-2.56L24.36 0L4.56 0L4.56-28L23.76-28L23.76-25.44L7.52-25.44L7.52-15.48L22-15.48L22-12.96L7.52-12.96L7.52-2.56Z M48.20 0L39.72-10.56L34.76-6L34.76 0L31.92 0L31.92-29.68L34.76-29.68L34.76-9.56L47.32-21.04L50.84-21.04L41.84-12.44L51.68 0L48.20 0Z M74.88 0L74.88-25.44L65.04-25.44L65.04-28L87.68-28L87.68-25.44L77.84-25.44L77.84 0L74.88 0Z M103.72-21.20Q107.68-21.20 110.02-18.90Q112.36-16.60 112.36-12.20L112.36-12.20L112.36 0L109.52 0L109.52-11.92Q109.52-15.20 107.88-16.92Q106.24-18.64 103.20-18.64L103.20-18.64Q99.80-18.64 97.82-16.62Q95.84-14.60 95.84-11.04L95.84-11.04L95.84 0L93 0L93-29.68L95.84-29.68L95.84-17.36Q97-19.20 99.04-20.20Q101.08-21.20 103.72-21.20L103.72-21.20Z M128.64-21.20Q132.76-21.20 134.96-19.14Q137.16-17.08 137.16-13.04L137.16-13.04L137.16 0L134.44 0L134.44-3.28Q133.48-1.64 131.62-0.72Q129.76 0.20 127.20 0.20L127.20 0.20Q123.68 0.20 121.60-1.48Q119.52-3.16 119.52-5.92L119.52-5.92Q119.52-8.60 121.46-10.24Q123.40-11.88 127.64-11.88L127.64-11.88L134.32-11.88L134.32-13.16Q134.32-15.88 132.80-17.30Q131.28-18.72 128.36-18.72L128.36-18.72Q126.36-18.72 124.52-18.06Q122.68-17.40 121.36-16.24L121.36-16.24L120.08-18.36Q121.68-19.72 123.92-20.46Q126.16-21.20 128.64-21.20L128.64-21.20ZM127.64-2.04Q130.04-2.04 131.76-3.14Q133.48-4.24 134.32-6.32L134.32-6.32L134.32-9.76L127.72-9.76Q122.32-9.76 122.32-6L122.32-6Q122.32-4.16 123.72-3.10Q125.12-2.04 127.64-2.04L127.64-2.04Z M153.44-21.20Q157.56-21.20 159.76-19.14Q161.96-17.08 161.96-13.04L161.96-13.04L161.96 0L159.24 0L159.24-3.28Q158.28-1.64 156.42-0.72Q154.56 0.20 152 0.20L152 0.20Q148.48 0.20 146.40-1.48Q144.32-3.16 144.32-5.92L144.32-5.92Q144.32-8.60 146.26-10.24Q148.20-11.88 152.44-11.88L152.44-11.88L159.12-11.88L159.12-13.16Q159.12-15.88 157.60-17.30Q156.08-18.72 153.16-18.72L153.16-18.72Q151.16-18.72 149.32-18.06Q147.48-17.40 146.16-16.24L146.16-16.24L144.88-18.36Q146.48-19.72 148.72-20.46Q150.96-21.20 153.44-21.20L153.44-21.20ZM152.44-2.04Q154.84-2.04 156.56-3.14Q158.28-4.24 159.12-6.32L159.12-6.32L159.12-9.76L152.52-9.76Q147.12-9.76 147.12-6L147.12-6Q147.12-4.16 148.52-3.10Q149.92-2.04 152.44-2.04L152.44-2.04Z M170.88 0L170.88-29.68L173.72-29.68L173.72 0L170.88 0Z M182.84 0L182.84-21.04L185.68-21.04L185.68 0L182.84 0ZM184.28-25.64Q183.40-25.64 182.80-26.24Q182.20-26.84 182.20-27.68L182.20-27.68Q182.20-28.48 182.80-29.08Q183.40-29.68 184.28-29.68L184.28-29.68Q185.16-29.68 185.76-29.10Q186.36-28.52 186.36-27.72L186.36-27.72Q186.36-26.84 185.76-26.24Q185.16-25.64 184.28-25.64L184.28-25.64Z M214.80 0.24Q211.68 0.24 208.82-0.76Q205.96-1.76 204.40-3.40L204.40-3.40L205.56-5.68Q207.08-4.16 209.60-3.22Q212.12-2.28 214.80-2.28L214.80-2.28Q218.56-2.28 220.44-3.66Q222.32-5.04 222.32-7.24L222.32-7.24Q222.32-8.92 221.30-9.92Q220.28-10.92 218.80-11.46Q217.32-12 214.68-12.64L214.68-12.64Q211.52-13.44 209.64-14.18Q207.76-14.92 206.42-16.44Q205.08-17.96 205.08-20.56L205.08-20.56Q205.08-22.68 206.20-24.42Q207.32-26.16 209.64-27.20Q211.96-28.24 215.40-28.24L215.40-28.24Q217.80-28.24 220.10-27.58Q222.40-26.92 224.08-25.76L224.08-25.76L223.08-23.40Q221.32-24.56 219.32-25.14Q217.32-25.72 215.40-25.72L215.40-25.72Q211.72-25.72 209.86-24.30Q208.00-22.88 208.00-20.64L208.00-20.64Q208.00-18.96 209.02-17.94Q210.04-16.92 211.58-16.38Q213.12-15.84 215.72-15.20L215.72-15.20Q218.80-14.44 220.70-13.70Q222.60-12.96 223.92-11.46Q225.24-9.96 225.24-7.40L225.24-7.40Q225.24-5.28 224.10-3.54Q222.96-1.80 220.60-0.78Q218.24 0.24 214.80 0.24L214.80 0.24Z M239.64-21.20Q243.76-21.20 245.96-19.14Q248.16-17.08 248.16-13.04L248.16-13.04L248.16 0L245.44 0L245.44-3.28Q244.48-1.64 242.62-0.72Q240.76 0.20 238.20 0.20L238.20 0.20Q234.68 0.20 232.60-1.48Q230.52-3.16 230.52-5.92L230.52-5.92Q230.52-8.60 232.46-10.24Q234.40-11.88 238.64-11.88L238.64-11.88L245.32-11.88L245.32-13.16Q245.32-15.88 243.80-17.30Q242.28-18.72 239.36-18.72L239.36-18.72Q237.36-18.72 235.52-18.06Q233.68-17.40 232.36-16.24L232.36-16.24L231.08-18.36Q232.68-19.72 234.92-20.46Q237.16-21.20 239.64-21.20L239.64-21.20ZM238.64-2.04Q241.04-2.04 242.76-3.14Q244.48-4.24 245.32-6.32L245.32-6.32L245.32-9.76L238.72-9.76Q233.32-9.76 233.32-6L233.32-6Q233.32-4.16 234.72-3.10Q236.12-2.04 238.64-2.04L238.64-2.04Z M267.92-21.20Q270.88-21.20 273.28-19.86Q275.68-18.52 277.04-16.08Q278.40-13.64 278.40-10.52L278.40-10.52Q278.40-7.40 277.04-4.96Q275.68-2.52 273.28-1.16Q270.88 0.20 267.92 0.20L267.92 0.20Q265.28 0.20 263.18-0.92Q261.08-2.04 259.80-4.16L259.80-4.16L259.80 0L257.08 0L257.08-29.68L259.92-29.68L259.92-17.04Q261.24-19.08 263.30-20.14Q265.36-21.20 267.92-21.20L267.92-21.20ZM267.72-2.32Q269.92-2.32 271.72-3.34Q273.52-4.36 274.54-6.24Q275.56-8.12 275.56-10.52L275.56-10.52Q275.56-12.92 274.54-14.80Q273.52-16.68 271.72-17.70Q269.92-18.72 267.72-18.72L267.72-18.72Q265.48-18.72 263.70-17.70Q261.92-16.68 260.90-14.80Q259.88-12.92 259.88-10.52L259.88-10.52Q259.88-8.12 260.90-6.24Q261.92-4.36 263.70-3.34Q265.48-2.32 267.72-2.32L267.72-2.32Z M317.80 0L306.36-13.16L300.64-7.36L300.64 0L297.68 0L297.68-28L300.64-28L300.64-11.08L317.08-28L320.48-28L308.36-15.32L321.32 0L317.80 0Z M344.12-10.52L344.08-9.64L326.48-9.64Q326.72-6.36 329.00-4.34Q331.28-2.32 334.76-2.32L334.76-2.32Q336.72-2.32 338.36-3.02Q340.00-3.72 341.20-5.08L341.20-5.08L342.80-3.24Q341.40-1.56 339.30-0.68Q337.20 0.20 334.68 0.20L334.68 0.20Q331.44 0.20 328.94-1.18Q326.44-2.56 325.04-5Q323.64-7.44 323.64-10.52L323.64-10.52Q323.64-13.60 324.98-16.04Q326.32-18.48 328.66-19.84Q331.00-21.20 333.92-21.20L333.92-21.20Q336.84-21.20 339.16-19.84Q341.48-18.48 342.80-16.06Q344.12-13.64 344.12-10.52L344.12-10.52ZM333.92-18.76Q330.88-18.76 328.82-16.82Q326.76-14.88 326.48-11.76L326.48-11.76L341.40-11.76Q341.12-14.88 339.06-16.82Q337.00-18.76 333.92-18.76L333.92-18.76Z M363.40 0L363.40-28L366.36-28L366.36-2.56L382.04-2.56L382.04 0L363.40 0Z M387.56 0L387.56-21.04L390.40-21.04L390.40 0L387.56 0ZM389.00-25.64Q388.12-25.64 387.52-26.24Q386.92-26.84 386.92-27.68L386.92-27.68Q386.92-28.48 387.52-29.08Q388.12-29.68 389.00-29.68L389.00-29.68Q389.88-29.68 390.48-29.10Q391.08-28.52 391.08-27.72L391.08-27.72Q391.08-26.84 390.48-26.24Q389.88-25.64 389.00-25.64L389.00-25.64Z M414.40-21.04L417.20-21.04L406.68 2.52Q405.40 5.48 403.72 6.72Q402.04 7.96 399.68 7.96L399.68 7.96Q398.16 7.96 396.84 7.48Q395.52 7 394.56 6.04L394.56 6.04L395.88 3.92Q397.48 5.52 399.72 5.52L399.72 5.52Q401.16 5.52 402.18 4.72Q403.20 3.92 404.08 2L404.08 2L405.00-0.04L395.60-21.04L398.56-21.04L406.48-3.16L414.40-21.04Z M440.16-10.52L440.12-9.64L422.52-9.64Q422.76-6.36 425.04-4.34Q427.32-2.32 430.80-2.32L430.80-2.32Q432.76-2.32 434.40-3.02Q436.04-3.72 437.24-5.08L437.24-5.08L438.84-3.24Q437.44-1.56 435.34-0.68Q433.24 0.20 430.72 0.20L430.72 0.20Q427.48 0.20 424.98-1.18Q422.48-2.56 421.08-5Q419.68-7.44 419.68-10.52L419.68-10.52Q419.68-13.60 421.02-16.04Q422.36-18.48 424.70-19.84Q427.04-21.20 429.96-21.20L429.96-21.20Q432.88-21.20 435.20-19.84Q437.52-18.48 438.84-16.06Q440.16-13.64 440.16-10.52L440.16-10.52ZM429.96-18.76Q426.92-18.76 424.86-16.82Q422.80-14.88 422.52-11.76L422.52-11.76L437.44-11.76Q437.16-14.88 435.10-16.82Q433.04-18.76 429.96-18.76L429.96-18.76Z"/></g>
</svg>
</g><g opacity="1" transform="rotate(0 97.0057 381.9268)">
<svg width="335.1291" height="50" x="97.0057" y="381.9268" version="1.1" preserveAspectRatio="none" viewBox="3.28 -24.88 166.76 24.88">
  <g transform="matrix(1 0 0 1 0 0)" class="companyName"><path id="id-D6z1nYkh6" d="M3.28 0L3.28-24.88L22.36-24.88Q25.52-24.88 25.52-21.72L25.52-21.72L25.52-15Q25.52-12.56 23.32-12.44L23.32-12.44Q25.52-12.24 25.52-9.96L25.52-9.96L25.52-3.16Q25.52 0 22.36 0L22.36 0L3.28 0ZM19.32-3.40L19.32-3.40L19.32-10.04Q19.32-10.80 19.10-11.04Q18.88-11.28 18.08-11.28L18.08-11.28L9.76-11.28L9.76-2.36L17.96-2.36Q18.72-2.36 19.02-2.58Q19.32-2.80 19.32-3.40ZM19.32-14.88L19.32-14.88L19.32-21.28Q19.32-22.08 19.10-22.30Q18.88-22.52 18.08-22.52L18.08-22.52L9.76-22.52L9.76-13.64L18.08-13.64Q18.88-13.64 19.10-13.86Q19.32-14.08 19.32-14.88Z M49.20-13.64L49.20-24.88L55.68-24.88L55.68 0L49.20 0L49.20-11.28L38.28-11.28L38.28 0L31.80 0L31.80-24.88L38.28-24.88L38.28-13.64L49.20-13.64Z M83.80-21.72L83.80-21.72L83.80-3.16Q83.80 0 80.64 0L80.64 0L65.08 0Q61.92 0 61.92-3.16L61.92-3.16L61.92-21.72Q61.92-24.88 65.08-24.88L65.08-24.88L80.64-24.88Q83.80-24.88 83.80-21.72ZM77.36-3.60L77.36-3.60L77.36-21.28Q77.36-22.08 77.12-22.30Q76.88-22.52 76.12-22.52L76.12-22.52L69.64-22.52Q68.88-22.52 68.64-22.30Q68.40-22.08 68.40-21.28L68.40-21.28L68.40-3.60Q68.40-2.80 68.64-2.58Q68.88-2.36 69.64-2.36L69.64-2.36L76.12-2.36Q76.88-2.36 77.12-2.58Q77.36-2.80 77.36-3.60Z M111.60-21.72L111.60-21.72L111.60-3.16Q111.60 0 108.44 0L108.44 0L92.88 0Q89.72 0 89.72-3.16L89.72-3.16L89.72-21.72Q89.72-24.88 92.88-24.88L92.88-24.88L108.44-24.88Q111.60-24.88 111.60-21.72ZM105.16-3.60L105.16-3.60L105.16-21.28Q105.16-22.08 104.92-22.30Q104.68-22.52 103.92-22.52L103.92-22.52L97.44-22.52Q96.68-22.52 96.44-22.30Q96.20-22.08 96.20-21.28L96.20-21.28L96.20-3.60Q96.20-2.80 96.44-2.58Q96.68-2.36 97.44-2.36L97.44-2.36L103.92-2.36Q104.68-2.36 104.92-2.58Q105.16-2.80 105.16-3.60Z M124.80-12.72L134.64-24.88L141.76-24.88L131.72-12.72L142.12 0L134.92 0L124.80-12.72ZM117.84 0L117.84-24.88L124.16-24.88L124.16 0L117.84 0Z M163.56-13.64L163.56-24.88L170.04-24.88L170.04 0L163.56 0L163.56-11.28L152.64-11.28L152.64 0L146.16 0L146.16-24.88L152.64-24.88L152.64-13.64L163.56-13.64Z"/></g>
</svg>
</g><g opacity="1" transform="rotate(0 217.6522 214.6443)">
<svg width="93.8361" height="127.2825" x="217.6522" y="214.6443" version="1.1" preserveAspectRatio="none" viewBox="40.947608947753906 19.999996185302734 117.95635223388672 160">
  <g transform="matrix(1 0 0 1 0 0)" ><g><path d="M106.3 172.7c0 4-3.3 7.3-7.4 7.3-4.1 0-7.4-3.3-7.4-7.3s3.3-7.3 7.4-7.3c4.1-.1 7.4 3.2 7.4 7.3z" data-color="1" class="icon1"></path><path d="M129.3 20c-13.5 0-24.9 8.9-28.5 21.2-.1.5-.6.7-1.1.6-.3-.1-.5-.3-.6-.6-4.1-13.7-17.4-22.6-31.6-21-13.8 1.4-24.9 12.5-26.4 26.2-.6 6 .6 11.7 3.1 16.6.7 1.7 1.5 3.3 2.6 4.7l13.9 18.4c2 2.7 3.2 6 3.2 9.4v26.3c0 3.8 3 7.2 6.8 7.3 4 .1 7.2-3.1 7.2-7v-13.4c.4-3.7 3.7-6.4 7.5-6.2 3.7.3 6.5 3.5 6.5 7.2V122c0 .3-.1.6-.1.8v27.4c0 3.9 3.1 7 7 7s7-3.1 7-7v-23.6c.7-3.3 3.6-5.7 7-5.7 3.2 0 6.3 1.7 6.9 5.8v5.9c0 3.8 3 7.2 6.8 7.3 4 .1 7.2-3.1 7.2-7V98.1c0-3.4 1.1-6.8 3.2-9.5l15.4-20.2c.5-.7.9-1.4 1.3-2.1 3.6-5.1 5.4-11.2 5.3-17.3-.2-16.2-13.4-29-29.6-29z" data-color="2" class="icon2"></path></g></g>
</svg>
</g></svg></svg>